<svg xmlns="http://www.w3.org/2000/svg" viewBox="147.775 114.25999999999999 279.4499969482422 329.77000259399415"> <svg xmlns="http://www.w3.org/2000/svg" id="Layer_2" viewBox="0.0000017881393432617188 0 48.840003967285156 63.71000289916992" height="146.739990234375" width="112.49070056377869" y="184.26" x="231.255" preserveAspectRatio="xMinYMin" style="overflow: visible;"><path class="cls-2" d="m3.87,29.02l20.56,1.84,20.56-1.84c.57-.05.79-.38.66-.65-.02-.03-.04-.05-.05-.08-.11-.13-.3-.25-.61-.28l-20.56-1.83-20.56,1.83c-.3.03-.5.14-.6.28-.02.03-.04.06-.06.09-.12.27.1.6.66.65Z" style="fill: #7effe2; fill-opacity: 1;"></path><path class="cls-5" d="m30.06,7.11h0s-.09-.03-.14-.03l-5.49-.49-5.49.49c-.05,0-.1.02-.14.03h0c-.26.07-.36.24-.29.39h0c.05.12.19.21.43.24l5.49.49,5.49-.49c.24-.02.38-.12.43-.23h0c.07-.15-.03-.32-.29-.39Z" style="fill: #cefff9; fill-opacity: 1;"></path><path class="cls-6" d="m13.36,14.48s0,0,0,0c0,0,0,0,0,0h0c.07.1.19.17.4.19l10.66.96,10.66-.96c.21-.02.33-.09.4-.19h0s0,0,0,0c0,0,0,0,0,0h0c.11-.17,0-.38-.32-.44h0s-.05-.01-.08-.02l-10.66-.95-10.66.95s-.05.02-.08.02h0c-.32.07-.43.28-.32.44h0Z" style="fill: #b0faf1; fill-opacity: 1;"></path><path class="cls-1" d="m40.88,21.06l-.58-.05h0s-15.87-1.41-15.87-1.41l-15.87,1.42h0s-.58.05-.58.05c-.61.05-.61.6,0,.65h.06s0,0,0,0l16.39,1.47,16.39-1.47h0s.06,0,.06,0c.61-.05.61-.6,0-.65Z" style="fill: #97ffe9; fill-opacity: 1;"></path><circle class="cls-3" cx="24.43" cy="1.41" r="1.41" style="fill: #fafffa; fill-opacity: 1;"></circle><path class="cls-4" d="m47.52,42.36l-23.09-2.06h0s0,0,0,0h0s-23.09,2.06-23.09,2.06c-.85.08-1.45.82-1.31,1.61v.03c.11.63.66,1.12,1.34,1.18l19.63,1.75c.5.04.5.5,0,.54l-18.14,1.49c-1.2.1-1.79,1.44-1.01,2.31l.04.05c.21.24.51.4.83.46l14.94,2.8c.51.05.51.5,0,.55l-9.76.87c-.68.06-.98.86-.49,1.31,3.29,2.99,7.51,5.13,12.36,5.99h0c1.49.26,3.04.41,4.64.41h0c1.61,0,3.15-.15,4.64-.41h0c4.85-.86,9.06-3.01,12.36-5.99.5-.45.2-1.25-.49-1.31l-9.76-.87c-.51-.05-.51-.5,0-.55l14.94-2.8c.32-.06.62-.22.83-.46l.04-.05c.78-.87.2-2.21-1.01-2.31l-18.14-1.49c-.5-.04-.5-.5,0-.54l19.63-1.75c.68-.06,1.22-.55,1.33-1.18v-.03c.14-.8-.46-1.54-1.31-1.61Z" style="fill: #00E9CA; fill-opacity: 1;"></path><path class="cls-4" d="m48.74,35.87c-.18-.21-.49-.37-.96-.41l-23.33-2.08h-.02s-.02,0-.02,0l-23.33,2.08c-.47.04-.78.2-.96.41-.04.21-.08.43-.12.65.13.28.48.52,1.07.57l23.33,2.08h.02s.02,0,.02,0l23.33-2.08c.59-.05.94-.29,1.07-.57-.04-.22-.07-.44-.12-.65Z" style="fill: #31f8da; fill-opacity: 1;"></path></svg> <svg xmlns="http://www.w3.org/2000/svg" y="342" viewBox="4.170000076293945 7.869999885559082 139.4499969482422 32.03000259399414" x="217.775" height="32.03000259399414" width="139.4499969482422" style="overflow: visible;"><g fill="#fafffa" fill-opacity="1" style=""><path d="M6.11 39.69L6.11 39.69Q5.29 39.69 4.73 39.13Q4.17 38.57 4.17 37.75L4.17 37.75L4.17 11.44Q4.17 10.62 4.73 10.04Q5.29 9.46 6.11 9.46L6.11 9.46L16.13 9.46Q20.21 9.46 22.79 10.62Q25.37 11.78 26.60 13.74Q27.82 15.70 27.82 18.19L27.82 18.19Q27.82 20.68 26.42 22.83Q25.03 24.98 22.19 25.97L22.19 25.97Q23.99 26.45 25.07 27.67Q26.14 28.90 26.68 30.44Q27.22 31.99 27.39 33.43Q27.56 34.87 27.56 35.78L27.56 35.78L27.56 37.75Q27.56 38.57 27.00 39.13Q26.45 39.69 25.63 39.69L25.63 39.69Q24.73 39.69 24.19 39.15Q23.65 38.61 23.65 37.75L23.65 37.75L23.65 36.46Q23.65 35.39 23.50 33.93Q23.35 32.47 22.75 31.05Q22.15 29.63 20.79 28.70Q19.44 27.78 16.99 27.78L16.99 27.78L8.08 27.78L8.08 37.75Q8.08 38.57 7.50 39.13Q6.92 39.69 6.11 39.69ZM8.08 13.16L8.08 24.08L15.87 24.08Q19.48 24.08 21.69 22.66Q23.91 21.24 23.91 18.49L23.91 18.49Q23.91 16.90 23.18 15.70Q22.45 14.49 20.64 13.82Q18.83 13.16 15.65 13.16L15.65 13.16L8.08 13.16ZM43.82 39.90L43.82 39.90Q38.57 39.90 35.63 36.92Q32.68 33.93 32.68 28.51L32.68 28.51Q32.68 25.59 33.76 22.98Q34.83 20.38 37.11 18.75Q39.39 17.11 42.96 17.11L42.96 17.11Q46.27 17.11 48.55 18.64Q50.83 20.17 52.01 22.62Q53.19 25.07 53.19 27.95L53.19 27.95Q53.19 28.77 52.65 29.33Q52.12 29.89 51.21 29.89L51.21 29.89L36.64 29.89Q36.98 32.77 38.83 34.51Q40.68 36.25 44.16 36.25L44.16 36.25Q46.10 36.25 47.43 35.88Q48.76 35.52 49.97 34.92L49.97 34.92Q50.31 34.74 50.74 34.74L50.74 34.74Q51.43 34.74 51.94 35.22Q52.46 35.69 52.46 36.42L52.46 36.42Q52.46 36.94 52.14 37.35Q51.82 37.75 51.34 38.01L51.34 38.01Q49.92 38.83 48.27 39.37Q46.61 39.90 43.82 39.90ZM36.64 26.70L36.64 26.70L49.32 26.70Q49.19 24.47 48.18 23.09Q47.17 21.72 45.75 21.07Q44.33 20.43 42.96 20.43L42.96 20.43Q41.58 20.43 40.16 21.07Q38.74 21.72 37.75 23.09Q36.77 24.47 36.64 26.70ZM66.56 39.69L66.13 39.69Q65.32 39.69 64.69 39.22Q64.07 38.74 63.77 38.10L63.77 38.10L56.29 20.21Q56.07 19.69 56.07 19.31L56.07 19.31Q56.07 18.49 56.63 17.91Q57.19 17.33 58.01 17.33L58.01 17.33Q58.61 17.33 59.10 17.65Q59.60 17.97 59.77 18.45L59.77 18.45L66.35 35.13L72.93 18.45Q73.14 17.97 73.64 17.65Q74.13 17.33 74.69 17.33L74.69 17.33Q75.51 17.33 76.07 17.91Q76.63 18.49 76.63 19.31L76.63 19.31Q76.63 19.69 76.41 20.21L76.41 20.21L68.93 38.10Q68.63 38.74 68.00 39.22Q67.38 39.69 66.56 39.69L66.56 39.69ZM90.95 39.90L90.95 39.90Q85.70 39.90 82.75 36.92Q79.81 33.93 79.81 28.51L79.81 28.51Q79.81 25.59 80.88 22.98Q81.96 20.38 84.24 18.75Q86.52 17.11 90.09 17.11L90.09 17.11Q93.40 17.11 95.68 18.64Q97.95 20.17 99.14 22.62Q100.32 25.07 100.32 27.95L100.32 27.95Q100.32 28.77 99.78 29.33Q99.24 29.89 98.34 29.89L98.34 29.89L83.76 29.89Q84.11 32.77 85.96 34.51Q87.81 36.25 91.29 36.25L91.29 36.25Q93.22 36.25 94.56 35.88Q95.89 35.52 97.09 34.92L97.09 34.92Q97.44 34.74 97.87 34.74L97.87 34.74Q98.56 34.74 99.07 35.22Q99.59 35.69 99.59 36.42L99.59 36.42Q99.59 36.94 99.27 37.35Q98.94 37.75 98.47 38.01L98.47 38.01Q97.05 38.83 95.40 39.37Q93.74 39.90 90.95 39.90ZM83.76 26.70L83.76 26.70L96.45 26.70Q96.32 24.47 95.31 23.09Q94.30 21.72 92.88 21.07Q91.46 20.43 90.09 20.43L90.09 20.43Q88.71 20.43 87.29 21.07Q85.87 21.72 84.88 23.09Q83.89 24.47 83.76 26.70ZM107.41 39.69L107.41 39.69Q106.60 39.69 106.04 39.13Q105.48 38.57 105.48 37.75L105.48 37.75L105.48 19.31Q105.48 18.49 106.04 17.91Q106.60 17.33 107.41 17.33L107.41 17.33Q108.23 17.33 108.81 17.91Q109.39 18.49 109.39 19.31L109.39 19.31L109.39 21.16Q110.55 19.61 112.23 18.36Q113.91 17.11 116.14 17.11L116.14 17.11L116.36 17.11Q117.18 17.11 117.71 17.67Q118.25 18.23 118.25 19.05L118.25 19.05Q118.25 19.87 117.69 20.38Q117.13 20.90 116.27 20.90L116.27 20.90L116.06 20.90Q113.95 20.90 112.23 21.95Q110.51 23.01 109.39 24.68L109.39 24.68L109.39 37.75Q109.39 38.57 108.81 39.13Q108.23 39.69 107.41 39.69ZM133.21 39.90L133.21 39.90Q130.98 39.90 129.17 39.04Q127.37 38.18 125.86 36.64L125.86 36.64L125.86 37.75Q125.86 38.57 125.30 39.13Q124.74 39.69 123.88 39.69L123.88 39.69Q123.07 39.69 122.51 39.13Q121.95 38.57 121.95 37.75L121.95 37.75L121.95 9.85Q121.95 8.99 122.51 8.43Q123.07 7.87 123.88 7.87L123.88 7.87Q124.74 7.87 125.30 8.43Q125.86 8.99 125.86 9.85L125.86 9.85L125.86 20.38Q127.37 18.83 129.17 17.97Q130.98 17.11 133.21 17.11L133.21 17.11Q135.84 17.11 138.20 18.45Q140.57 19.78 142.09 22.32Q143.62 24.85 143.62 28.51L143.62 28.51Q143.62 32.16 142.09 34.70Q140.57 37.24 138.20 38.57Q135.84 39.90 133.21 39.90ZM132.66 36.25L132.66 36.25Q135.71 36.25 137.71 34.27Q139.71 32.29 139.71 28.51L139.71 28.51Q139.71 24.68 137.71 22.73Q135.71 20.77 132.66 20.77L132.66 20.77Q130.55 20.77 128.83 21.69Q127.11 22.62 125.86 23.99L125.86 23.99L125.86 33.02Q127.11 34.40 128.83 35.32Q130.55 36.25 132.66 36.25Z" transform="translate(0, 0)"></path></g></svg></svg>